<svg width="540" height="142" viewBox="0 0 540 142" fill="none" xmlns="http://www.w3.org/2000/svg">
<path d="M61.986 108.105C57.0801 106.992 52.3798 101.76 48.2376 97.9128L23.5151 72.8324L16.6699 75.9589C17.4289 76.8048 17.9184 77.5501 18.3409 78.4751C18.9888 79.8935 19.323 81.6042 19.5246 84.4935L22.645 115.639C22.9958 120.324 22.4453 123.035 21.1616 126.752L32.0152 121.794C30.7065 121.05 29.8577 120.171 29.3225 118.999C28.6747 117.581 28.4075 115.691 28.0718 113.161L27.3175 108.735L40.6995 102.623C40.6995 102.623 43.8521 105.282 46.675 108.689C47.9798 110.403 48.2752 112.355 47.5556 114.696L61.986 108.105ZM26.8487 103.955L25.6014 87.6806L37.3605 99.2288L26.8487 103.955Z" fill="black"/>
<path d="M63.19 107.607L75.1523 102.475C71.065 99.6544 69.7107 96.8419 69.4434 96.2188L51.9869 55.5346C51.9869 55.5346 44.3969 63.8079 44.4504 63.9325C47.6645 65.0617 49.1348 68.4884 49.1348 68.4884L62.3408 99.2664C62.7953 100.326 64.2923 103.815 63.19 107.607Z" fill="black"/>
<path d="M76.434 101.748L88.5084 96.8849C84.4854 93.9736 83.1946 91.1315 82.9413 90.5026L66.4021 49.4369C66.4021 49.4369 58.6284 57.5378 58.679 57.6636C61.867 58.8647 63.26 62.3235 63.26 62.3235L75.7721 93.39C76.2027 94.4591 77.6211 97.9808 76.434 101.748Z" fill="black"/>
<path d="M114.873 49.7122C109.835 51.3192 107.213 56.7098 106.351 58.6926L104.497 52.8795L96.0571 60.553C98.9152 61.705 100.281 65.5392 100.281 65.5392L105.328 81.3638C105.596 82.2035 106.682 86.0555 105.308 89.554L117.709 85.5983C114.104 82.5498 112.926 79.0825 112.823 78.7596L107.031 60.8241C108.375 59.6837 109.629 58.9281 110.727 58.5779C114.731 57.3005 117.374 60.2293 117.374 60.2293L121.19 50.3302C121.19 50.3302 119.071 48.3731 114.873 49.7122Z" fill="black"/>
<path d="M128.649 42.6382L132.711 34.4763C132.711 34.4763 128.601 33.6889 125.181 30.1613L120.774 37.8587C120.774 37.8587 123.952 41.5267 128.649 42.6382ZM145.832 76.9082C142.311 73.7627 141.228 70.2647 141.134 69.9391L133.646 44.2981L124.936 51.7581C127.994 53.0611 129.087 56.8385 129.087 56.8385L133.571 72.3386C133.834 73.2504 134.797 77.0654 133.262 80.544L145.832 76.9082Z" fill="black"/>
<path d="M172.13 38.4377L170.319 30.6454C165.036 31.8732 163.091 36.0838 162.471 38.8034C160.005 37.7757 157.113 37.6125 154.075 38.3185C146.613 40.0529 141.715 46.8292 143.004 52.3762C144.14 57.2629 147.59 60.4284 151.85 61.3873C149.21 62.9057 145.353 66.3774 145.998 69.1509C146.474 71.198 149.642 72.5499 157.654 71.3838C173.23 69.2252 175.653 71.8638 174.335 73.9798C172.019 77.7895 161.711 79.5588 156.815 74.3629L151.01 83.2292C153.605 85.4102 157.596 86.7099 164.53 85.0984C171.596 83.4561 178.376 74.2936 178.605 68.3935C178.898 60.6691 172.6 62.6201 164.676 64.4619C156.949 66.2576 153.92 65.5001 153.505 63.7171C153.321 62.9247 153.564 62.1722 153.72 61.6486C155.296 61.8392 156.927 61.669 158.71 61.2546C166.238 59.5049 171.587 55.2687 169.816 47.0495C169.08 43.8797 167.099 41.3471 164.429 39.7404C166.789 38.2173 169.395 37.7508 172.13 38.4377ZM162.264 56.1827C157.443 57.3031 153.901 56.7344 150.925 51.7185C149.804 49.8909 149.04 48.3981 148.764 47.2094C148.288 45.1623 149.099 43.8602 151.476 43.3076C156.165 42.2179 159.115 43.8292 162.121 48.9772C163.257 50.8709 163.94 52.313 164.201 53.4356C164.554 54.9544 163.981 55.7836 162.264 56.1827Z" fill="black"/>
<path d="M200.587 63.3255L212.684 61.2617C209.659 57.2385 209.037 54.8 208.9 53.998C208.877 53.8644 206.404 39.7745 205.834 36.4329L205.732 35.8315C205.173 32.5567 204.049 27.1776 196.564 28.4547C191.752 29.2756 186.636 35.1691 185.394 36.7565L181.438 13.5662C181.438 13.5662 172.133 19.8992 172.144 19.9661C175.005 21.8164 175.632 25.4921 175.632 25.4921L181.264 58.5066C181.447 59.5759 182.03 63.3966 180.137 66.8145L192.969 64.6253C189.823 61.1042 189.141 57.5067 189.084 57.1725C188.046 51.0909 186.907 44.8202 185.847 38.605C187.837 37.3713 189.573 36.6625 191.044 36.4116C198.261 35.1802 199.218 40.3816 199.24 40.5153C200.073 45.3939 200.894 50.2057 201.715 55.0176C201.76 55.2849 201.923 57.0453 200.587 63.3255Z" fill="black"/>
<path d="M225.115 51.3403C224.992 50.3309 222.356 28.7967 222.356 28.7967L228.951 27.9896L229.818 24.4684L221.81 25.4485L220.838 17.5077L211.253 30.1557L214.483 29.7603C214.483 29.7603 216.106 49.1644 216.402 52.1336C216.705 55.1701 219.634 60.6856 226.565 59.8373C235.852 58.7007 237.817 52.9959 237.817 52.9959C236.091 53.9585 225.774 56.7239 225.115 51.3403Z" fill="black"/>
<path d="M254.4 35.6215C247.946 31.4923 243.363 28.9392 243.261 27.3832C243.212 26.639 244.069 26.2431 246.031 26.1145C252.255 25.7066 259.076 32.3256 259.076 32.3256L261.579 23.8726C261.579 23.8726 258.976 20.4422 250.046 21.0275C242.402 21.5285 238.675 26.8684 238.892 30.1834C239.11 33.4983 240.224 37.0262 249.859 43.053C256.29 46.8439 260.5 48.878 260.607 50.5016C259.848 51.3666 258.927 51.8346 257.98 51.8967C249.181 52.4055 244.486 45.0358 244.486 45.0358L238.552 51.9471C238.552 51.9471 242.434 57.2639 251.77 56.652C265.097 55.7785 265.731 48.8748 265.616 47.1159C265.315 42.5156 262.417 40.8031 254.4 35.6215Z" fill="black"/>
<path d="M306.806 18.5027C301.52 18.3689 297.276 22.6018 295.812 24.1924L295.966 18.0927L285.476 22.5744C287.799 24.5999 287.831 28.6699 287.831 28.6699L287.411 45.2747C287.389 46.1558 287.152 50.1511 284.706 53.0053L297.719 53.3347C295.312 49.2725 295.337 45.6109 295.346 45.2721L295.755 26.429C297.399 25.7924 298.831 25.4895 299.983 25.5187C304.185 25.625 305.72 29.2583 305.72 29.2583L312.572 21.1579C312.572 21.1579 311.212 18.6142 306.806 18.5027Z" fill="black"/>
<path d="M332.123 50.541C328.406 50.2406 325.528 49.6678 323.402 43.9866C323.119 43.2835 323.22 42.8835 323.22 42.8835L339.87 25.3884C339.87 25.3884 337.295 20.215 329.659 19.5978C319.725 18.7949 314.816 25.676 314.007 35.6773C312.992 48.2464 318.142 54.3762 326.724 55.0698C334.292 55.6816 337.799 50.9998 338.468 50.3056C336.408 50.5472 334.218 50.7103 332.123 50.541ZM320.715 27.5812C321.064 24.9567 321.781 23.6543 324.135 23.9806C329.784 24.7773 333.235 26.6886 329.362 31.681C328.072 33.3451 322.616 40.2501 322.616 40.2501C322.622 40.1825 320.328 32.3791 320.715 27.5812Z" fill="black"/>
<path d="M358.739 37.0008C353.241 31.6656 349.26 28.2482 349.471 26.7032C349.571 25.9643 350.491 25.7477 352.439 26.0136C358.619 26.8574 363.979 34.7055 363.979 34.7055L368.121 26.923C368.121 26.923 366.256 23.0419 357.389 21.8313C349.798 20.7949 345.08 25.2827 344.631 28.5742C344.181 31.8657 344.568 35.5451 352.805 43.3753C358.349 48.3747 362.068 51.2088 361.848 52.821C360.932 53.517 359.936 53.7916 358.996 53.6633C350.273 52.4038 347.144 44.2446 347.144 44.2446L339.949 49.8312C339.949 49.8312 342.69 55.8163 351.96 57.0819C365.193 58.8886 367.194 52.2509 367.433 50.5044C368.057 45.9366 365.559 43.6797 358.739 37.0008Z" fill="black"/>
<path d="M388.155 57.2598C384.49 56.5729 381.687 55.7027 380.167 49.8306C379.959 49.1018 380.1 48.7145 380.1 48.7145L398.486 33.0538C398.486 33.0538 396.466 27.6398 388.936 26.2285C379.14 24.3927 373.539 30.7235 371.691 40.5856C369.368 52.98 373.85 59.614 382.313 61.2001C389.776 62.5989 393.753 58.3089 394.49 57.6883C392.416 57.7135 390.221 57.647 388.155 57.2598ZM379.208 33.2343C379.828 30.6605 380.678 29.4402 382.985 30.0106C388.52 31.3928 391.752 33.654 387.379 38.2147C385.922 39.7349 379.775 46.0324 379.775 46.0324C379.788 45.9658 378.321 37.9655 379.208 33.2343Z" fill="black"/>
<path d="M425.191 33.04C420.044 31.8257 415.022 35.0991 413.263 36.3559L414.664 30.4172L403.479 32.6543C405.337 35.1127 404.535 39.103 404.535 39.103L400.721 55.2693C400.518 56.1271 399.468 59.9891 396.489 62.2816L409.158 65.2705C407.635 60.8014 408.41 57.2227 408.488 56.8928L412.749 38.5334C414.489 38.2471 415.952 38.2441 417.074 38.5088C421.165 39.474 421.924 43.3448 421.924 43.3448L430.289 36.8202C430.289 36.8202 429.48 34.0519 425.191 33.04Z" fill="black"/>
<path d="M453.833 41.408C454.949 43.6395 455.326 44.5261 455.749 45.4968C455.988 46.1313 455.994 46.8391 455.785 47.5551C455.596 48.206 455.173 48.9302 454.769 49.5893L444.759 65.5275L443.513 45.3218C443.491 44.1855 443.431 43.1794 443.583 42.6587C443.792 41.9427 444.559 41.2482 446.999 39.4169L431.833 34.9988C433.485 37.8105 434.321 40.0312 434.892 44.8581L437.732 71.9541L442.484 73.3384L459.214 50.8137C461.632 47.8461 463.92 46.5355 466.786 45.1814L453.833 41.408Z" fill="black"/>
<path d="M478.417 80.1229C474.945 78.7609 472.355 77.3804 471.963 71.3273C471.895 70.5724 472.107 70.2185 472.107 70.2185L493.104 58.2839C493.104 58.2839 492.135 52.5871 485.003 49.7887C475.726 46.1482 469.037 51.3162 465.371 60.6567C460.765 72.3955 463.923 79.7524 471.938 82.8975C479.007 85.6711 483.718 82.2032 484.558 81.7318C482.516 81.3676 480.373 80.8906 478.417 80.1229ZM474.134 54.8456C475.226 52.4338 476.289 51.3945 478.448 52.3875C483.626 54.7833 486.376 57.6105 481.226 61.2702C479.509 62.4901 472.291 67.5231 472.291 67.5231C472.315 67.46 472.375 59.3266 474.134 54.8456Z" fill="black"/>
<path d="M515.755 97.0672C514.517 93.8396 516.252 90.4626 516.252 90.4626L535.459 53.0737L524.033 52.6155C525.271 55.8431 523.536 59.2201 523.536 59.2201L519.788 66.517C517.754 63.9478 515.621 62.1659 513.51 61.0816C505.731 57.0852 498.004 62.1859 493.326 71.2918C489.732 78.2872 488.412 88.1272 494.322 91.1632C497.94 93.022 505.386 91.4355 507.362 91.0023L504.697 96.1885C504.697 96.1885 515.724 97.1275 515.755 97.0672ZM508.262 89.1019C506.989 89.0577 504.811 88.5487 502.821 87.5264C500.952 86.5661 499.299 85.1836 498.895 83.2992C498.524 81.203 499.873 77.094 501.855 73.2345C504.055 68.9529 507.009 64.9827 509.257 64.6131C512.447 64.0415 516.572 66.6941 516.835 70.3356C516.946 71.3071 516.719 72.6387 516.316 73.4227L508.262 89.1019Z" fill="black"/>
</svg>
