<svg width="46" height="60" viewBox="0 0 46 60" fill="none" xmlns="http://www.w3.org/2000/svg">
<path d="M45.4618 18.73C43.2048 7.352 35.2558 0 25.2098 0H25.2088C24.8898 0 24.5668 0.00800007 24.2438 0.0220001C15.4788 0.422 9.74481 3.043 6.20081 8.27C2.77081 13.326 1.40781 20.722 1.78081 32.252C1.85081 34.451 1.41481 37.219 0.952809 40.148C-0.0391913 46.444 -1.06719 52.954 2.39581 56.926C4.17481 58.966 6.88681 60 10.4588 60C11.2818 60 12.1688 59.946 13.0968 59.838C17.8678 59.282 19.6798 56.799 21.4328 54.398C23.3628 51.754 25.5518 48.757 32.6308 45.938C44.2368 41.314 47.4188 28.594 45.4618 18.73V18.73ZM31.7478 43.799C17.4438 49.496 20.9368 56.602 12.8218 57.546C11.9698 57.645 11.1828 57.692 10.4598 57.692C-2.99319 57.692 4.42181 41.314 4.12781 32.177C3.43981 10.925 8.81281 3.037 24.3538 2.327C24.6408 2.314 24.9258 2.307 25.2088 2.307C45.5628 2.308 51.0208 36.123 31.7478 43.799" fill="black"/>
<path d="M37.2842 24.9011C37.0027 21.8647 36.1854 18.9022 34.8702 16.1511C33.5042 13.4041 31.6052 10.7641 28.7912 8.90206C27.3972 7.97106 25.7432 7.28106 23.9672 7.03906C22.1962 6.78206 20.3532 6.99106 18.6952 7.53906C17.1762 8.04906 15.6652 8.71906 14.2652 9.66906C12.8692 10.6141 11.6002 11.8621 10.6582 13.3521C9.74423 14.8561 9.17423 16.5631 9.02123 18.2481C8.88579 19.8838 9.05568 21.5304 9.52223 23.1041C10.1872 25.3721 11.2712 27.4391 12.7102 29.1941C11.5622 28.8941 10.4132 28.7441 9.25923 28.6951L9.13823 29.0921C10.3782 29.8401 11.6052 30.5531 12.6572 31.3521C13.1762 31.7521 13.6492 32.1811 13.9982 32.6021C14.3552 33.0281 14.5182 33.4581 14.5332 33.7461C14.5412 34.0371 14.4452 34.2811 14.2322 34.6481C14.0332 35.0101 13.6972 35.4301 13.2922 35.8411C12.4702 36.6661 11.4492 37.5001 10.3852 38.3601C9.31923 39.2631 8.21723 40.0711 7.05323 41.4381C6.76223 41.8101 6.44023 42.1901 6.13323 42.9271C5.92889 43.4298 5.85993 43.9773 5.93323 44.5151C6.02023 45.2071 6.45223 45.8571 6.83423 46.1861C7.23523 46.5451 7.54323 46.6901 7.88523 46.8391C8.16523 46.9541 8.38323 47.0121 8.59423 47.0751C9.03323 47.1941 9.47923 47.2841 9.92623 47.3441C11.6607 47.5616 13.4217 47.3026 15.0202 46.5951C16.5442 45.9371 17.7952 44.9261 18.8752 43.8551C19.9532 42.7711 20.8422 41.5771 21.6562 40.3641C22.4614 39.1512 23.1776 37.8815 23.7992 36.5651C24.4162 35.2451 24.9982 33.8721 25.3642 32.3751C25.7272 30.8991 25.8542 29.2641 25.5752 27.6791C25.0362 24.4591 22.6642 21.6251 19.7822 20.1821C17.5392 19.0321 14.9602 18.7031 12.6372 19.1601C12.9032 17.8421 13.4032 16.6391 14.1862 15.6421C15.5652 13.8001 17.7272 12.4431 20.1822 11.3841C21.2712 10.9021 22.4162 10.6481 23.5772 10.7021C24.7362 10.7611 25.9062 11.1161 27.0042 11.7231C29.1982 12.9611 31.0232 15.0741 32.3782 17.4281C33.7562 19.7871 34.7102 22.4371 35.1912 25.1691C35.6822 27.8961 35.7072 30.7411 35.0032 33.4411C34.3122 36.1291 32.8072 38.6641 30.4962 40.4071L30.7362 40.7501C32.0247 39.9699 33.1614 38.963 34.0912 37.7781C35.0202 36.5891 35.7332 35.2361 36.2482 33.8191C37.2772 30.9741 37.5402 27.9031 37.2842 24.9011V24.9011ZM14.7572 21.1401C15.9742 21.6121 17.0842 22.2081 18.0562 22.9381C20.0332 24.3901 21.3052 26.3591 22.1612 28.5571C22.3902 29.1081 22.5792 29.6881 22.7242 30.2911C22.8112 30.5871 22.8612 30.9111 22.9232 31.2031C22.9762 31.5791 23.0132 31.8151 23.0402 32.1621C23.1362 33.4431 22.9892 34.7981 22.5362 36.0611C21.6452 38.5971 19.7222 40.7771 17.4272 42.0811C15.3412 43.2661 13.0692 43.8431 11.1722 43.5741C11.8272 43.0041 12.6032 42.3671 13.3412 41.7131C14.4132 40.7431 15.5212 39.7081 16.4872 38.3601C16.9662 37.6811 17.4292 36.9281 17.7472 35.9891C18.0602 35.0661 18.1352 33.8451 17.7182 32.7951C17.3152 31.7401 16.5612 31.0321 15.8552 30.5431C15.3572 30.1983 14.8206 29.913 14.2562 29.6931C13.2872 27.3351 12.6362 24.9151 12.4442 22.5771C12.3902 21.8591 12.3942 21.1551 12.4502 20.4711C13.2532 20.6501 14.0212 20.8641 14.7572 21.1401" fill="black"/>
</svg>
