<svg width="220" height="232" viewBox="0 0 220 232" fill="none" xmlns="http://www.w3.org/2000/svg">
<path fill-rule="evenodd" clip-rule="evenodd" d="M154 45V45.0925L154 45.1904C160.269 41.8765 167.415 40 175 40C199.853 40 220 60.1472 220 85C220 98.8538 213.74 111.245 203.894 119.5C213.74 127.755 220 140.146 220 154C220 178.853 199.853 199 175 199C167.597 199 160.612 197.212 154.452 194.045C151.07 215.552 132.456 232 110 232C88.7896 232 71.0066 217.325 66.2495 197.575C60.9373 199.782 55.1108 201 49 201C24.1472 201 4 180.853 4 156C4 142.453 9.98633 130.304 19.4583 122.054C7.70288 113.935 0 100.367 0 85C0 60.1472 20.1472 40 45 40C51.7922 40 58.2329 41.5049 64.0071 44.1992C64.4341 19.7158 84.4146 0 109 0C133.853 0 154 20.1472 154 45ZM110 163C134.853 163 155 142.853 155 118C155 93.1472 134.853 73 110 73C85.1472 73 65 93.1472 65 118C65 142.853 85.1472 163 110 163Z" fill="#A79FFF"/>
</svg>
